<?xml version="1.0" encoding="UTF-8"?>
<svg id="Layer_2" data-name="Layer 2" xmlns="http://www.w3.org/2000/svg" viewBox="0 0 2126.96 2126.96">
  <defs>
    <style>
      .cls-1 {
        fill: #5da149;
      }

      .cls-1, .cls-2, .cls-3, .cls-4 {
        stroke-width: 0px;
      }

      .cls-2 {
        fill: #55bc74;
      }

      .cls-3 {
        fill: #e3efdf;
      }

      .cls-4 {
        fill: #007d59;
      }
    </style>
  </defs>
  <g id="Background">
    <g>
      <circle class="cls-3" cx="1063.48" cy="1063.48" r="1063.48"/>
      <g>
        <g>
          <path class="cls-4" d="M1057.16,1408.93v360.09l-386.44,7.6s-111.79-55.85-120.99-139.58c-9.27-83.84,97.84-228.1,97.84-228.1h409.59Z"/>
          <path class="cls-4" d="M507.75,1673.66c-53.31-91.17-223.31-381.02-223.31-381.02,0,0-24.96-95.93,26.14-161.07,37.39-47.77,78.29-122.63,78.29-122.63l-118.83-111.91,403.41,18.69,190.97,351.79-123.83-72.55s-293.29,316.46-232.84,478.69Z"/>
        </g>
        <g>
          <path class="cls-2" d="M1328.52,977.37l275.84-231.65,254.13,291.09s29.06,121.38-29.1,182.46c-58.17,60.79-237.72,71.73-237.72,71.73l-263.15-313.64Z"/>
          <path class="cls-2" d="M1884.31,1227.75c-35.39,99.48-148.11,416.1-148.11,416.1,0,0-57.39,80.82-140.2,83.47-60.63,2.04-144.44,19.02-144.44,19.02l-8.95,162.93-245.29-321.24,146.77-372.29,23.89,141.6s430.86,21.09,516.32-129.6Z"/>
        </g>
        <g>
          <path class="cls-1" d="M819.39,870.62l-314.94-174.9,180.87-341.42s103.11-70.56,180.94-37.95c77.58,32.57,151.86,196.15,151.86,196.15l-198.74,358.11Z"/>
          <path class="cls-1" d="M854.68,261.9c105.59-2.34,441.43-10.17,441.43-10.17,0,0,96.11,24.69,128.16,101.06,23.44,55.98,69.24,128.16,69.24,128.16l155.46-49.72-212.25,343.85-400.37-4.26,123.58-72.94s-134.14-409.85-305.26-435.97Z"/>
        </g>
      </g>
    </g>
  </g>
</svg>